<svg enable-background="new 0 0 1480 1096" viewBox="0 0 1480 1096" xmlns="http://www.w3.org/2000/svg" xmlns:xlink="http://www.w3.org/1999/xlink"><radialGradient id="a" cx="89.0049" cy="-38.5871" gradientTransform="matrix(.9943 0 0 -.9943 55.2104 1034.2856)" gradientUnits="userSpaceOnUse" r="1072.179"><stop offset="0" stop-color="#e44857"/><stop offset=".2427" stop-color="#ba4c9c"/><stop offset=".4535" stop-color="#9a4fd2"/><stop offset=".6108" stop-color="#8651f3"/><stop offset=".6969" stop-color="#7f52ff"/></radialGradient><path d="m452.9 1069.7c2.1 13.4-8.2 25.5-21.7 25.5h-299.7c-10.8 0-20-7.9-21.7-18.5l-44.6-278.3c-2.1-13.4 8.2-25.5 21.7-25.5h299.8c10.8 0 20 7.9 21.7 18.5zm349.4-.1-44.8-278.3c-1.7-10.7-10.9-18.5-21.7-18.5h-298c-13.5 0-23.9 12.1-21.7 25.5l44.5 278.3c1.7 10.7 10.9 18.5 21.7 18.5h298.3c13.5 0 23.8-12.1 21.7-25.5zm274.8-303.4c13.5 0 23.9-12.1 21.7-25.5l-44.7-278.2c-1.7-10.7-10.9-18.5-21.7-18.5h-998.6c-13.6 0-23.9 12.1-21.7 25.5l45 278.2c1.7 10.7 10.9 18.5 21.7 18.5zm74.6 303.4-44.8-278.3c-1.7-10.7-10.9-18.5-21.7-18.5h-298c-13.5 0-23.9 12.1-21.7 25.5l44.5 278.3c1.7 10.7 10.9 18.5 21.7 18.5h298.3c13.5 0 23.8-12.1 21.7-25.5z" fill="url(#a)"/><path d="m59 515.9h-4.3l6.6-32.6h4.9l17.6 32.6h-4.1l-4.6-8.7h-14.6zm5-27.5-2.8 15.5h12.1l-8.2-15.5-.9-1.9z" fill="#fff"/><path d="m102.4 493.1c1.9 1.1 3.6 2.6 4.9 4.5s2.2 4 2.5 6.4c.4 2.3.2 4.5-.5 6.4s-1.8 3.4-3.4 4.5-3.5 1.6-5.7 1.6c-1.8 0-3.6-.4-5.2-1.2s-3-1.9-4.1-3.4l.2 1.5 1.7 10h-3.7l-5-31.3h3.6l.6 4c.7-1.5 1.7-2.6 3.1-3.4 1.3-.8 2.9-1.2 4.8-1.2 2.2 0 4.2.5 6.2 1.6zm.8 18.8c1.1-.8 1.9-1.9 2.3-3.3.5-1.4.6-2.9.3-4.7-.3-1.7-.9-3.3-1.8-4.7s-2-2.5-3.4-3.3c-1.3-.8-2.8-1.2-4.3-1.2s-2.9.4-4 1.2-1.9 1.9-2.4 3.3-.6 2.9-.3 4.7c.3 1.7.9 3.3 1.8 4.7s2.1 2.5 3.4 3.3c1.4.8 2.8 1.2 4.3 1.2 1.7 0 3-.4 4.1-1.2z" fill="#fff"/><path d="m131.4 493.1c1.9 1.1 3.6 2.6 4.9 4.5s2.2 4 2.5 6.4c.4 2.3.2 4.5-.5 6.4s-1.8 3.4-3.4 4.5-3.5 1.6-5.7 1.6c-1.8 0-3.6-.4-5.2-1.2s-3-1.9-4.1-3.4l.2 1.5 1.7 10h-3.7l-5-31.3h3.6l.6 4c.7-1.5 1.7-2.6 3.1-3.4 1.3-.8 2.9-1.2 4.8-1.2 2.2 0 4.2.5 6.2 1.6zm.8 18.8c1.1-.8 1.9-1.9 2.3-3.3.5-1.4.6-2.9.3-4.7-.3-1.7-.9-3.3-1.8-4.7s-2-2.5-3.4-3.3c-1.3-.8-2.8-1.2-4.3-1.2s-2.9.4-4 1.2-1.9 1.9-2.4 3.3-.6 2.9-.3 4.7c.3 1.7.9 3.3 1.8 4.7s2.1 2.5 3.4 3.3c1.4.8 2.8 1.2 4.3 1.2 1.7 0 3-.4 4.1-1.2z" fill="#fff"/><path d="m149.7 515.9h-3.8l-5.2-32.6h3.8z" fill="#fff"/><path d="m152.1 487.7-.7-4.4h4.3l.7 4.4zm8.5 28.2h-3.8l-3.8-23.8h3.8z" fill="#fff"/><path d="m171.5 514.8c-2-1.1-3.7-2.6-5-4.5s-2.2-4-2.6-6.4c-.4-2.3-.2-4.5.5-6.4s1.9-3.4 3.6-4.5 3.6-1.6 5.9-1.6c1.9 0 3.8.4 5.6 1.1 1.8.8 3.2 1.8 4.5 3.1 1.2 1.3 2 2.8 2.5 4.5h-3.8c-.4-1-.9-1.9-1.8-2.8-.8-.8-1.8-1.5-2.9-1.9-1.1-.5-2.3-.7-3.5-.7-1.5 0-2.9.4-4 1.2s-1.9 1.9-2.4 3.3-.6 3-.3 4.7.9 3.3 1.8 4.7 2.1 2.5 3.4 3.3c1.4.8 2.8 1.2 4.3 1.2 1.2 0 2.3-.2 3.3-.7 1-.4 1.7-1.1 2.3-1.9s.9-1.7.9-2.6h3.8c.1 1.6-.2 3-1 4.3s-2 2.3-3.5 3-3.3 1.1-5.2 1.1c-2.2.2-4.3-.4-6.4-1.5z" fill="#fff"/><path d="m204.3 492.5c1.5.7 2.7 1.6 3.7 2.9s1.6 2.8 1.9 4.5l2.6 16h-3.7l-.6-3.5c-.5 1.3-1.4 2.4-2.7 3s-2.8 1-4.8 1c-1.6 0-3-.3-4.4-.9-1.3-.6-2.4-1.4-3.3-2.4s-1.4-2.2-1.6-3.6c-.2-1.2-.1-2.4.4-3.4s1.2-1.9 2.2-2.6 2.2-1.1 3.6-1.2l6.9-.7c.5 0 .9-.3 1.1-.7s.3-.9.2-1.7c-.2-.9-.5-1.8-1.1-2.5s-1.3-1.3-2.2-1.7-1.9-.6-3-.6-2 .2-2.8.5c-.8.4-1.5.8-1.9 1.5-.4.6-.7 1.3-.6 2h-3.7c-.1-1.3.3-2.5 1-3.6s1.7-2 3.1-2.6c1.3-.6 2.9-1 4.6-1 2 .3 3.7.6 5.1 1.3zm.4 20.2c1-.6 1.8-1.3 2.2-2.3.5-1 .6-2.1.4-3.4l-.4-2.7-8.1.8c-1.2.1-2.2.6-2.8 1.4s-.9 1.8-.7 2.9c.1.8.5 1.5 1 2.2.5.6 1.2 1.1 2 1.5s1.7.5 2.7.5c1.4-.1 2.6-.3 3.7-.9z" fill="#fff"/><path d="m225.5 515.9c-1.7 0-3.2-.5-4.4-1.4s-1.9-2.2-2.1-3.8l-2.5-15.4h-4.2l-.5-3.3h2.6c.6 0 1-.2 1.4-.6.3-.4.4-.8.3-1.4l-.6-4h3.4l1 6h5.8l.5 3.3h-5.8l2.5 15.1c.1.7.4 1.2.8 1.5.4.4 1 .6 1.6.6h3.7l.5 3.3h-4z" fill="#fff"/><path d="m230 487.7-.7-4.4h4.3l.7 4.4zm8.6 28.2h-3.8l-3.8-23.8h3.8z" fill="#fff"/><path d="m249.5 514.8c-2-1.1-3.7-2.6-5.1-4.5s-2.2-4-2.6-6.4-.2-4.5.5-6.4 2-3.4 3.6-4.5c1.7-1.1 3.7-1.6 6-1.6s4.5.5 6.5 1.6 3.7 2.6 5.1 4.5 2.2 4 2.6 6.4.2 4.5-.6 6.4-2 3.4-3.7 4.5-3.7 1.6-6 1.6c-2.1.1-4.3-.5-6.3-1.6zm10-2.9c1.1-.8 1.9-1.8 2.4-3.2s.6-2.9.3-4.7-.9-3.4-1.8-4.7c-.9-1.4-2.1-2.4-3.4-3.2-1.4-.8-2.8-1.1-4.4-1.1s-2.9.4-4 1.1c-1.1.8-1.9 1.8-2.4 3.2s-.6 3-.3 4.7c.3 1.8.9 3.4 1.8 4.7.9 1.4 2.1 2.4 3.4 3.2 1.4.8 2.8 1.1 4.4 1.1 1.5 0 2.9-.4 4-1.1z" fill="#fff"/><path d="m285.6 492.7c1.5.8 2.7 1.9 3.6 3.3s1.6 3.1 1.9 4.9l2.4 15h-3.8l-2.4-14.8c-.3-2-1.1-3.6-2.4-4.8-1.2-1.1-2.8-1.7-4.7-1.7-1.4 0-2.5.3-3.4.9s-1.6 1.4-2 2.4c-.4 1.1-.5 2.3-.2 3.7l2.5 14.3h-3.8l-3.8-23.8h3.6l.6 3.7c.5-1.4 1.4-2.4 2.6-3.2 1.2-.7 2.7-1.1 4.4-1.1 1.8 0 3.5.4 4.9 1.2z" fill="#fff"/><path d="m68.3 557.8h-3.8l-5.2-32.6h3.8z" fill="#fff"/><path d="m79.2 556.7c-2-1.1-3.7-2.6-5.1-4.5s-2.2-4-2.6-6.4-.2-4.5.5-6.4 2-3.4 3.6-4.5c1.7-1.1 3.7-1.6 6-1.6s4.5.5 6.5 1.6 3.7 2.6 5.1 4.5 2.2 4 2.6 6.4.2 4.5-.6 6.4-2 3.4-3.7 4.5-3.7 1.6-6 1.6c-2.1-0-4.3-.5-6.3-1.6zm10-2.9c1.1-.8 1.9-1.8 2.4-3.2s.6-2.9.3-4.7-.9-3.4-1.8-4.7c-.9-1.4-2.1-2.4-3.4-3.2-1.4-.8-2.8-1.1-4.4-1.1s-2.9.4-4 1.1c-1.1.8-1.9 1.8-2.4 3.2s-.6 3-.3 4.7c.3 1.8.9 3.4 1.8 4.7.9 1.4 2.1 2.4 3.4 3.2 1.4.8 2.8 1.1 4.4 1.1 1.5 0 2.9-.4 4-1.1z" fill="#fff"/><path d="m116.4 534h3.6l3.5 21.9c.3 2.1.2 3.8-.5 5.3-.6 1.5-1.7 2.6-3.3 3.4-1.5.8-3.4 1.2-5.7 1.2-2.1 0-3.9-.3-5.7-1-1.7-.7-3.2-1.6-4.3-2.8s-1.9-2.6-2.4-4.2h3.8c.4.9.9 1.8 1.7 2.5s1.7 1.3 2.8 1.7 2.3.6 3.5.6c2.2 0 3.9-.6 5-1.8s1.5-2.8 1.1-4.9l-.3-1.7-.3-2.4c-.7 1.3-1.7 2.3-3 2.9-1.3.7-2.8 1-4.5 1-2 0-3.9-.5-5.7-1.4s-3.2-2.3-4.4-4-1.9-3.6-2.3-5.8c-.3-2.2-.2-4.1.4-5.8s1.7-3 3.1-4c1.5-.9 3.2-1.4 5.2-1.4 1.8 0 3.4.4 5 1.1 1.5.7 2.9 1.7 4 3.1zm-.9 17.5c1-.7 1.8-1.6 2.2-2.8s.5-2.6.3-4.1-.8-2.9-1.6-4.1-1.9-2.1-3.1-2.8-2.6-1-4-1-2.6.3-3.7 1c-1 .7-1.7 1.6-2.1 2.8s-.5 2.6-.3 4.1c.3 1.6.8 2.9 1.6 4.1s1.8 2.1 3 2.8 2.5 1 4 1c1.4 0 2.6-.3 3.7-1z" fill="#fff"/><path d="m126 529.6-.7-4.4h4.3l.7 4.4zm8.6 28.2h-3.8l-3.8-23.8h3.8z" fill="#fff"/><path d="m145.5 556.7c-2-1.1-3.7-2.6-5-4.5-1.4-1.9-2.2-4-2.6-6.4s-.2-4.5.5-6.4 1.9-3.4 3.6-4.5 3.6-1.6 5.9-1.6c1.9 0 3.8.4 5.6 1.1 1.8.8 3.2 1.8 4.5 3.1 1.2 1.3 2.1 2.8 2.5 4.5h-3.8c-.4-1-.9-1.9-1.8-2.8-.8-.8-1.8-1.5-2.9-1.9-1.1-.5-2.3-.7-3.5-.7-1.5 0-2.9.4-4 1.2s-1.9 1.9-2.4 3.3-.6 3-.3 4.7.9 3.3 1.8 4.7 2.1 2.5 3.4 3.3c1.4.8 2.8 1.2 4.3 1.2 1.2 0 2.3-.2 3.3-.7 1-.4 1.7-1.1 2.3-1.9s.9-1.7.9-2.6h3.8c.1 1.6-.2 3-1 4.3s-2 2.3-3.5 3-3.3 1.1-5.2 1.1c-2.3.1-4.4-.4-6.4-1.5z" fill="#fff"/><path d="m11.7 402.8c-1.8-.8-3.1-2-4.1-3.5s-1.5-3.2-1.5-5.1h4c0 1.2.3 2.3 1 3.3s1.5 1.7 2.7 2.2 2.5.8 3.9.8c1.5 0 2.8-.3 3.9-.8s2-1.2 2.6-2.1.9-2 .9-3.1c0-1.4-.4-2.6-1.3-3.6s-2.1-1.6-3.6-1.9l-5.8-1.1c-1.6-.3-2.9-.9-4-1.7s-2-1.9-2.6-3.1-.9-2.6-.9-4.1c0-1.8.5-3.3 1.4-4.7s2.2-2.4 3.8-3.2 3.5-1.2 5.5-1.2c2.1 0 4 .4 5.6 1.2s2.9 1.9 3.8 3.2 1.4 3 1.4 4.7h-4c0-1.1-.3-2-.9-2.9-.6-.8-1.4-1.5-2.4-2s-2.2-.7-3.5-.7-2.5.2-3.5.7-1.8 1.1-2.4 2c-.6.8-.9 1.8-.9 2.9 0 1.3.4 2.4 1.2 3.3s1.9 1.5 3.3 1.8l6.1 1.2c1.5.3 2.8.9 4 1.8s2.1 1.9 2.7 3.2c.7 1.3 1 2.6 1 4.1 0 1.9-.5 3.5-1.5 5-1 1.4-2.3 2.6-4.1 3.4s-3.7 1.2-5.9 1.2c-2.1 0-4.1-.4-5.9-1.2z" fill="#777a80"/><path d="m51.3 379.9c1.3.8 2.4 1.9 3.1 3.3s1.1 3.1 1.1 5v15.2h-3.8v-15.1c0-2-.5-3.6-1.5-4.7s-2.5-1.7-4.3-1.7c-1.4 0-2.6.3-3.7 1-1 .6-1.8 1.5-2.4 2.7s-.8 2.5-.8 4.1v13.7h-3.8v-33h3.8v7.8l-.1 4.8c.8-1.4 1.8-2.4 3.1-3.2 1.3-.7 2.9-1.1 4.6-1.1 1.8.1 3.4.4 4.7 1.2z" fill="#777a80"/><path d="m76.1 379.8c1.4.7 2.4 1.6 3.2 2.9s1.1 2.8 1.1 4.6v16.2h-3.7v-3.6c-.7 1.4-1.8 2.4-3.2 3.1s-3 1.1-4.9 1.1c-1.6 0-3-.3-4.2-.9s-2.2-1.4-2.9-2.5-1-2.3-1-3.6.3-2.4 1-3.5 1.5-1.9 2.6-2.6 2.4-1.1 3.8-1.2l7-.7c.5 0 .9-.3 1.2-.7s.5-1 .5-1.7c0-1-.2-1.8-.7-2.5s-1.1-1.3-1.9-1.7-1.8-.6-2.9-.6-2 .2-2.9.5c-.9.4-1.6.9-2.1 1.5-.6.6-.9 1.3-1 2.1h-3.7c.1-1.3.7-2.6 1.6-3.7s2.1-2 3.5-2.6 3-1 4.7-1c1.9.1 3.5.4 4.9 1.1zm-3 20.4c1.1-.6 2-1.3 2.6-2.4.6-1 .9-2.2.9-3.5v-2.7l-8.2.8c-1.3.1-2.3.6-3 1.4s-1.2 1.8-1.2 2.9c0 .8.2 1.5.6 2.2.4.6 1 1.1 1.8 1.5s1.6.5 2.6.5c1.5.2 2.8-.1 3.9-.7z" fill="#777a80"/><path d="m98.7 379.1v3.9h-.9c-2.2 0-3.9.7-5.2 2s-1.9 3.2-1.9 5.6v12.9h-3.8v-24.1h3.8v4.9c.7-1.6 1.6-2.9 2.8-3.8s2.7-1.3 4.4-1.3h.8z" fill="#777a80"/><path d="m123.8 392.3h-19.1c.1 1.6.6 3.1 1.3 4.4s1.7 2.3 2.9 3 2.5 1.1 4 1.1c1 0 2-.2 2.9-.5s1.7-.8 2.4-1.3c.7-.6 1.2-1.2 1.5-1.9h3.6c-.3 1.3-.9 2.5-1.9 3.6s-2.3 1.9-3.8 2.5-3.2.9-4.9.9c-2.3 0-4.3-.5-6.1-1.6s-3.2-2.6-4.2-4.5-1.5-4.1-1.5-6.5.5-4.5 1.5-6.4 2.4-3.4 4.2-4.5 3.8-1.6 6.1-1.6c2.1 0 4.1.5 5.8 1.6s3 2.6 4 4.5 1.4 4.1 1.4 6.5v.7zm-16.4-8.3c-1.4 1.3-2.3 3-2.6 5.2h15.1c-.3-2.2-1.1-3.9-2.4-5.2s-2.9-1.9-4.8-1.9c-2.1 0-3.9.6-5.3 1.9z" fill="#777a80"/><path d="m150.9 379.3v24.1h-3.6v-4.1c-.9 1.5-2.1 2.6-3.6 3.4s-3.1 1.2-5 1.2c-2.2 0-4.2-.5-5.9-1.6-1.8-1.1-3.2-2.6-4.2-4.5s-1.5-4.1-1.5-6.4.5-4.5 1.5-6.4 2.4-3.4 4.2-4.5 3.8-1.7 5.9-1.7c1.8 0 3.5.4 5 1.2s2.7 1.9 3.6 3.4l-.1-12.9h3.8zm-7.7 20.1c1.2-.8 2.2-1.9 2.9-3.3s1-3 1-4.7-.3-3.3-1-4.7-1.7-2.5-2.9-3.3-2.6-1.2-4.2-1.2c-1.5 0-2.9.4-4.1 1.2s-2.2 1.9-2.9 3.3-1 3-1 4.7.3 3.3 1 4.7 1.6 2.5 2.9 3.3c1.2.8 2.6 1.2 4.1 1.2 1.6 0 3-.4 4.2-1.2z" fill="#777a80"/><path d="m173.7 401.8c-2.5-1.5-4.4-3.5-5.8-6.1s-2.1-5.5-2.1-8.7.7-6.1 2.1-8.7 3.3-4.6 5.8-6.1 5.2-2.2 8.2-2.2c2.5 0 4.8.5 7 1.6s3.9 2.5 5.3 4.3 2.2 3.7 2.5 5.7h-3.9c-.3-1.4-1-2.7-2-3.9-1.1-1.2-2.4-2.2-3.9-3-1.6-.7-3.2-1.1-5-1.1-2.3 0-4.4.6-6.2 1.7-1.8 1.2-3.3 2.8-4.3 4.8-1 2.1-1.6 4.4-1.6 6.9 0 2.6.5 4.9 1.6 6.9 1 2 2.5 3.7 4.3 4.8 1.8 1.2 3.9 1.7 6.2 1.7 1.8 0 3.4-.4 5-1.1s2.9-1.7 3.9-3c1.1-1.2 1.7-2.5 2-3.9h3.9c-.3 2-1.1 4-2.5 5.7-1.4 1.8-3.2 3.2-5.3 4.3-2.2 1.1-4.5 1.6-7 1.6-3 0-5.7-.7-8.2-2.2z" fill="#777a80"/><path d="m206.4 402.4c-1.8-1.1-3.3-2.6-4.3-4.5-1.1-1.9-1.6-4.1-1.6-6.5s.5-4.6 1.6-6.5 2.5-3.4 4.4-4.5 3.9-1.6 6.2-1.6 4.4.5 6.2 1.6c1.9 1.1 3.3 2.6 4.4 4.5s1.6 4.1 1.6 6.5-.5 4.6-1.6 6.5-2.5 3.4-4.4 4.5-3.9 1.6-6.2 1.6c-2.4 0-4.5-.5-6.3-1.6zm10.4-3c1.2-.8 2.2-1.8 2.9-3.2s1.1-3 1.1-4.8-.4-3.4-1.1-4.8-1.7-2.5-2.9-3.2c-1.2-.8-2.6-1.1-4.2-1.1s-3 .4-4.2 1.1c-1.2.8-2.2 1.8-2.9 3.2s-1.1 3-1.1 4.8.4 3.4 1.1 4.8 1.7 2.5 2.9 3.2c1.2.8 2.6 1.1 4.2 1.1s3-.3 4.2-1.1z" fill="#777a80"/><path d="m251.8 379.3v24.1h-3.6v-4.1c-.9 1.5-2.1 2.6-3.6 3.4s-3.1 1.2-5 1.2c-2.2 0-4.2-.5-5.9-1.6-1.8-1.1-3.2-2.6-4.2-4.5s-1.5-4.1-1.5-6.4.5-4.5 1.5-6.4 2.4-3.4 4.2-4.5 3.8-1.7 5.9-1.7c1.8 0 3.5.4 5 1.2s2.7 1.9 3.6 3.4l-.1-12.9h3.8zm-7.7 20.1c1.2-.8 2.2-1.9 2.9-3.3s1-3 1-4.7-.3-3.3-1-4.7-1.7-2.5-2.9-3.3-2.6-1.2-4.2-1.2c-1.5 0-2.9.4-4.1 1.2s-2.2 1.9-2.9 3.3-1 3-1 4.7.3 3.3 1 4.7 1.6 2.5 2.9 3.3c1.2.8 2.6 1.2 4.1 1.2 1.6 0 3-.4 4.2-1.2z" fill="#777a80"/><path d="m279.8 392.3h-19.1c.1 1.6.6 3.1 1.3 4.4s1.7 2.3 2.8 3c1.2.7 2.5 1.1 4 1.1 1 0 2-.2 2.9-.5s1.7-.8 2.4-1.3c.7-.6 1.2-1.2 1.5-1.9h3.6c-.3 1.3-.9 2.5-1.9 3.6s-2.3 1.9-3.8 2.5-3.2.9-4.9.9c-2.3 0-4.3-.5-6.1-1.6s-3.2-2.6-4.2-4.5-1.5-4.1-1.5-6.5.5-4.5 1.5-6.4 2.4-3.4 4.2-4.5 3.8-1.6 6.1-1.6c2.1 0 4.1.5 5.8 1.6s3 2.6 4 4.5 1.4 4.1 1.4 6.5zm-16.4-8.3c-1.4 1.3-2.3 3-2.6 5.2h15.1c-.3-2.2-1.1-3.9-2.4-5.2s-2.9-1.9-4.8-1.9c-2.1 0-3.9.6-5.3 1.9z" fill="#777a80"/><path d="m332.4 1.2 17.5 26.8v-26.8h3.9v33h-4.2l-17.4-26.8v26.8h-3.9v-33c0-0 4.1-0 4.1-0z" fill="#777a80"/><path d="m375.8 10.5c1.4.7 2.4 1.6 3.2 2.9s1.1 2.8 1.1 4.6v16.2h-3.7v-3.6c-.7 1.4-1.8 2.4-3.2 3.1s-3 1.1-4.9 1.1c-1.6 0-3-.3-4.2-.9s-2.2-1.4-2.9-2.5-1-2.3-1-3.6.3-2.4 1-3.5c.6-1.1 1.5-1.9 2.6-2.6s2.4-1.1 3.8-1.2l7-.7c.5 0 .9-.3 1.2-.7s.5-1 .5-1.7c0-1-.2-1.8-.7-2.5s-1.1-1.3-1.9-1.7-1.8-.6-2.9-.6-2 .2-2.9.5c-.9.4-1.6.9-2.1 1.5s-.9 1.3-1 2.1h-3.7c.1-1.3.7-2.6 1.6-3.7s2.1-2 3.5-2.6 3-1 4.7-1c2 .1 3.6.5 4.9 1.1zm-2.9 20.5c1.1-.6 2-1.3 2.6-2.4.6-1 .9-2.2.9-3.5v-2.7l-8.2.8c-1.3.1-2.3.6-3 1.4-.8.8-1.2 1.8-1.2 2.9 0 .8.2 1.5.6 2.2.4.6 1 1.1 1.8 1.5s1.6.5 2.6.5c1.5.1 2.8-.1 3.9-.7z" fill="#777a80"/><path d="m393.2 34.2c-1.7 0-3.1-.5-4.1-1.4s-1.5-2.2-1.5-3.8v-15.6h-4.2v-3.3h2.6c.6 0 1.1-.2 1.4-.6.4-.4.6-.9.6-1.4v-4h3.4v6h5.8v3.3h-5.8v15.3c0 .7.2 1.2.6 1.6s.9.6 1.5.6h3.7v3.3z" fill="#777a80"/><path d="m402.3 5.7v-4.5h4.3v4.5zm4 28.5h-3.8v-24.1h3.8z" fill="#777a80"/><path d="m423.8 34.2h-4l-9.4-24.1h4.1l7.4 19.7 7.3-19.7h4z" fill="#777a80"/><path d="m458.1 23.1h-19.1c.1 1.6.6 3.1 1.3 4.4s1.7 2.3 2.8 3c1.2.7 2.5 1.1 4 1.1 1 0 2-.2 2.9-.5s1.7-.8 2.4-1.3c.7-.6 1.2-1.2 1.5-1.9h3.6c-.3 1.3-.9 2.5-1.9 3.6s-2.3 1.9-3.8 2.5-3.2.9-4.9.9c-2.3 0-4.3-.5-6.1-1.6s-3.2-2.6-4.2-4.5-1.5-4.1-1.5-6.5.5-4.5 1.5-6.4 2.4-3.4 4.2-4.5 3.8-1.6 6.1-1.6c2.1 0 4.1.5 5.8 1.6s3 2.6 4 4.5 1.4 4.1 1.4 6.5zm-16.4-8.3c-1.4 1.3-2.3 3-2.6 5.2h15.1c-.3-2.2-1.1-3.9-2.4-5.2s-2.9-1.9-4.8-1.9c-2.2-.1-3.9.6-5.3 1.9z" fill="#777a80"/><path d="m478.5 32.6c-2.5-1.5-4.4-3.5-5.8-6.1s-2.1-5.5-2.1-8.7.7-6.1 2.1-8.7 3.3-4.6 5.8-6.1 5.2-2.2 8.2-2.2c2.5 0 4.8.5 7 1.6s3.9 2.5 5.3 4.3 2.2 3.7 2.5 5.7h-3.9c-.3-1.4-1-2.7-2-3.9-1.1-1.2-2.4-2.2-3.9-3-1.6-.7-3.2-1.1-5-1.1-2.3 0-4.4.6-6.2 1.7-1.8 1.2-3.3 2.8-4.3 4.8-1 2.1-1.6 4.4-1.6 6.9 0 2.6.5 4.9 1.6 6.9 1 2 2.5 3.7 4.3 4.8 1.8 1.2 3.9 1.7 6.2 1.7 1.8 0 3.4-.4 5-1.1s2.9-1.7 3.9-3c1.1-1.2 1.7-2.5 2-3.9h3.9c-.3 2-1.1 4-2.5 5.7-1.4 1.8-3.2 3.2-5.3 4.3-2.2 1.1-4.5 1.6-7 1.6-3-0-5.7-.7-8.2-2.2z" fill="#777a80"/><path d="m511.1 33.2c-1.8-1.1-3.3-2.6-4.3-4.5s-1.6-4.1-1.6-6.5.5-4.6 1.6-6.5 2.5-3.4 4.4-4.5 3.9-1.6 6.2-1.6 4.4.5 6.2 1.6c1.9 1.1 3.3 2.6 4.4 4.5s1.6 4.1 1.6 6.5-.5 4.6-1.6 6.5-2.5 3.4-4.4 4.5-3.9 1.6-6.2 1.6c-2.4-0-4.4-.6-6.3-1.6zm10.5-3c1.2-.8 2.2-1.8 2.9-3.2s1.1-3 1.1-4.8-.4-3.4-1.1-4.8-1.7-2.5-2.9-3.2c-1.2-.8-2.6-1.1-4.2-1.1s-3 .4-4.2 1.1c-1.2.8-2.2 1.8-2.9 3.2s-1.1 3-1.1 4.8.4 3.4 1.1 4.8 1.7 2.5 2.9 3.2c1.2.8 2.6 1.1 4.2 1.1 1.5 0 3-.4 4.2-1.1z" fill="#777a80"/><path d="m556.6 10.1v24.1h-3.6v-4.1c-.9 1.5-2.1 2.6-3.6 3.4s-3.1 1.2-5 1.2c-2.2 0-4.2-.5-5.9-1.6-1.8-1.1-3.2-2.6-4.2-4.5s-1.5-4.1-1.5-6.4.5-4.5 1.5-6.4 2.4-3.4 4.2-4.5 3.8-1.7 5.9-1.7c1.8 0 3.5.4 5 1.2s2.7 1.9 3.6 3.4l-.1-12.9h3.8v8.8zm-7.7 20.1c1.2-.8 2.2-1.9 2.9-3.3s1-3 1-4.7-.3-3.3-1-4.7-1.7-2.5-2.9-3.3-2.6-1.2-4.2-1.2c-1.5 0-2.9.4-4.1 1.2s-2.2 1.9-2.9 3.3-1 3-1 4.7.3 3.3 1 4.7 1.6 2.5 2.9 3.3c1.2.8 2.6 1.2 4.1 1.2 1.6 0 3-.4 4.2-1.2z" fill="#777a80"/><path d="m584.6 23.1h-19.1c.1 1.6.6 3.1 1.3 4.4s1.7 2.3 2.8 3c1.2.7 2.5 1.1 4 1.1 1 0 2-.2 2.9-.5s1.7-.8 2.4-1.3c.7-.6 1.2-1.2 1.5-1.9h3.6c-.3 1.3-.9 2.5-1.9 3.6s-2.3 1.9-3.8 2.5-3.2.9-4.9.9c-2.3 0-4.3-.5-6.1-1.6s-3.2-2.6-4.2-4.5-1.5-4.1-1.5-6.5.5-4.5 1.5-6.4 2.4-3.4 4.2-4.5 3.8-1.6 6.1-1.6c2.1 0 4.1.5 5.8 1.6s3 2.6 4 4.5 1.4 4.1 1.4 6.5zm-16.4-8.3c-1.4 1.3-2.3 3-2.6 5.2h15.1c-.3-2.2-1.1-3.9-2.4-5.2s-2.9-1.9-4.8-1.9c-2.2-.1-3.9.6-5.3 1.9z" fill="#777a80"/><g fill="#fff"><path d="m106.6 815-.7-4.4h4.3l.7 4.4zm8.4 28.2h-3.8l-3.7-23.9h3.8z"/><path d="m128.5 841.6c-2.7-1.5-5-3.5-6.8-6.1s-3-5.4-3.5-8.6-.2-6 .8-8.6 2.7-4.6 4.9-6.1c2.3-1.5 4.9-2.2 8-2.2 3 0 5.9.7 8.6 2.2s5 3.5 6.8 6.1 3 5.4 3.5 8.6.2 6-.8 8.6-2.7 4.6-4.9 6.1c-2.3 1.5-4.9 2.2-7.9 2.2-3.1-0-6-.7-8.7-2.2zm14.1-3.1c1.7-1.1 2.9-2.7 3.7-4.8.7-2 .9-4.3.5-6.9s-1.3-4.9-2.6-6.9c-1.4-2-3-3.6-5.1-4.7-2-1.1-4.2-1.7-6.6-1.7-2.3 0-4.3.6-6 1.7s-2.9 2.7-3.6 4.7c-.8 2-.9 4.3-.5 6.9s1.3 4.9 2.6 6.9c1.4 2 3.1 3.6 5.1 4.7s4.2 1.7 6.5 1.7c2.3.2 4.3-.4 6-1.6z"/><path d="m163.1 842.6c-1.9-.8-3.4-2-4.6-3.4-1.2-1.5-1.9-3.2-2.2-5.1h4c.2 1.2.7 2.3 1.5 3.3.8.9 1.8 1.7 3 2.2s2.6.8 4.1.8 2.7-.2 3.8-.7 1.8-1.2 2.3-2.1.6-1.9.5-3.1c-.2-1.4-.8-2.5-1.8-3.5s-2.3-1.6-3.9-1.9l-6-1.1c-1.6-.3-3-.9-4.3-1.7s-2.3-1.9-3.1-3.1-1.3-2.6-1.5-4c-.3-1.7 0-3.3.7-4.6.7-1.4 1.8-2.4 3.3-3.2s3.3-1.1 5.3-1.1c2.1 0 4 .4 5.8 1.2s3.2 1.8 4.3 3.2 1.8 2.9 2.1 4.7h-4c-.2-1.1-.6-2-1.3-2.9-.7-.8-1.6-1.5-2.7-2s-2.3-.7-3.6-.7-2.4.2-3.4.7-1.7 1.1-2.1 2-.6 1.8-.4 2.9c.2 1.3.8 2.4 1.7 3.3s2.1 1.5 3.6 1.8l6.2 1.2c1.6.3 3 .9 4.3 1.7 1.3.9 2.4 1.9 3.2 3.2s1.4 2.6 1.6 4.1c.3 1.9 0 3.5-.7 4.9-.8 1.4-2 2.5-3.6 3.3s-3.5 1.2-5.8 1.2c-2.4-.3-4.4-.7-6.3-1.5z"/><path d="m120.4 884.8c-1.6-.6-2.9-1.5-3.9-2.6s-1.6-2.3-1.8-3.7h3.8c.2.8.5 1.5 1.2 2.1.6.6 1.4 1.1 2.4 1.5s2 .5 3.2.5c1.8 0 3.1-.4 4-1.1s1.2-1.8 1-3.1c-.2-1-.6-1.8-1.3-2.4s-1.7-1-2.9-1.2l-4.5-.7c-2.2-.3-3.9-1.1-5.3-2.3s-2.2-2.7-2.4-4.4c-.2-1.3 0-2.5.6-3.5s1.5-1.8 2.7-2.4 2.7-.9 4.4-.9 3.3.3 4.8.9 2.7 1.4 3.6 2.4c1 1 1.5 2.2 1.8 3.5h-3.8c-.1-.7-.5-1.3-1-1.9-.6-.6-1.3-1-2.1-1.3-.9-.3-1.8-.5-2.8-.5s-1.8.2-2.6.5c-.7.3-1.3.7-1.6 1.3-.4.5-.5 1.2-.4 1.9.1.9.5 1.7 1.2 2.2s1.5.9 2.7 1.1l4.6.7c2.3.3 4.1 1.1 5.4 2.3 1.4 1.2 2.2 2.8 2.5 4.6.2 1.5 0 2.7-.5 3.8s-1.5 2-2.8 2.6-2.9.9-4.7.9c-2.1.1-3.9-.2-5.5-.8z"/><path d="m154.9 862.4c1.9 1.1 3.6 2.6 4.9 4.5s2.1 4 2.5 6.4c.4 2.3.2 4.5-.5 6.4s-1.9 3.4-3.5 4.5-3.5 1.6-5.7 1.6c-1.8 0-3.6-.4-5.2-1.2s-3-1.9-4.1-3.4l.2 1.5 1.6 10h-3.7l-4.8-31.4h3.6l.6 4c.7-1.5 1.7-2.6 3.1-3.4s3-1.2 4.8-1.2c2.2.1 4.2.6 6.2 1.7zm.7 18.8c1.1-.8 1.9-1.9 2.4-3.3s.6-2.9.3-4.7c-.3-1.7-.9-3.3-1.8-4.7s-2-2.5-3.4-3.3c-1.3-.8-2.8-1.2-4.3-1.2s-2.9.4-4 1.2-1.9 1.9-2.4 3.3-.6 2.9-.3 4.7c.3 1.7.9 3.3 1.8 4.7s2 2.5 3.4 3.3 2.8 1.2 4.3 1.2c1.6-0 2.9-.4 4-1.2z"/><path d="m188.6 874.2h-19.1c.4 1.6 1 3.1 2 4.3.9 1.3 2 2.2 3.3 2.9s2.7 1 4.2 1c1 0 1.9-.2 2.8-.5s1.6-.7 2.2-1.3 1-1.2 1.2-1.9h3.6c-.1 1.3-.5 2.5-1.4 3.5-.9 1.1-2 1.9-3.5 2.5-1.4.6-3 .9-4.7.9-2.3 0-4.4-.5-6.4-1.6s-3.6-2.6-4.9-4.5-2.1-4.1-2.5-6.5c-.4-2.3-.2-4.5.6-6.4.7-1.9 1.9-3.4 3.5-4.5s3.6-1.6 5.8-1.6c2.1 0 4.1.5 6 1.6s3.4 2.6 4.7 4.5 2.1 4 2.4 6.4zm-17.7-8.3c-1.2 1.3-1.8 3-1.8 5.1h15.1c-.7-2.2-1.7-3.9-3.2-5.1-1.5-1.3-3.2-1.9-5.1-1.9-2.1 0-3.8.7-5 1.9z"/><path d="m199.3 884.1c-2-1.1-3.7-2.6-5-4.5s-2.2-4-2.5-6.4c-.4-2.3-.2-4.5.6-6.4s2-3.4 3.6-4.5c1.7-1.1 3.6-1.6 5.9-1.6 1.9 0 3.8.4 5.5 1.1 1.7.8 3.2 1.8 4.4 3.1s2 2.8 2.4 4.5h-3.8c-.3-1-.9-2-1.8-2.8-.8-.8-1.8-1.5-2.9-1.9-1.1-.5-2.3-.7-3.5-.7-1.5 0-2.9.4-4 1.2s-1.9 1.9-2.4 3.3-.6 3-.3 4.7.9 3.3 1.8 4.7 2 2.5 3.4 3.3 2.8 1.2 4.3 1.2c1.2 0 2.3-.2 3.3-.7s1.8-1.1 2.3-1.9c.6-.8.9-1.7.9-2.6h3.8c.1 1.6-.2 3-1.1 4.3-.8 1.3-2 2.3-3.5 3s-3.3 1.1-5.2 1.1c-2 .1-4.2-.4-6.2-1.5z"/><path d="m217.3 857-.7-4.4h4.3l.7 4.4zm8.4 28.2h-3.8l-3.7-23.9h3.8z"/><path d="m233.9 885.2-3.2-20.5h-4.2l-.5-3.3h4.2l-.6-3.6c-.2-1.6.1-2.9.9-3.8.9-.9 2.2-1.4 3.9-1.4h4.3l.5 3.3h-4.1c-.7 0-1.2.2-1.5.6s-.4.9-.3 1.5l.5 3.4h6l.5 3.3h-6l3.2 20.5z"/><path d="m244.3 857-.7-4.4h4.3l.7 4.4zm8.4 28.2h-3.8l-3.7-23.9h3.8z"/><path d="m263.6 884.1c-2-1.1-3.7-2.6-5-4.5s-2.2-4-2.5-6.4c-.4-2.3-.2-4.5.6-6.4s2-3.4 3.6-4.5c1.7-1.1 3.6-1.6 5.9-1.6 1.9 0 3.8.4 5.5 1.1 1.7.8 3.2 1.8 4.4 3.1s2 2.8 2.4 4.5h-3.8c-.3-1-.9-2-1.8-2.8-.8-.8-1.8-1.5-2.9-1.9-1.1-.5-2.3-.7-3.5-.7-1.5 0-2.9.4-4 1.2s-1.9 1.9-2.4 3.3-.6 3-.3 4.7.9 3.3 1.8 4.7 2 2.5 3.4 3.3 2.8 1.2 4.3 1.2c1.2 0 2.3-.2 3.3-.7s1.8-1.1 2.3-1.9.9-1.7.9-2.6h3.8c.1 1.6-.2 3-1.1 4.3-.8 1.3-2 2.3-3.5 3s-3.3 1.1-5.2 1.1c-2.1.1-4.2-.4-6.2-1.5z"/><path d="m297 885.2h-4.3l6.9-32.6h4.9l17.4 32.6h-4.1l-4.5-8.7h-14.6zm5.2-27.5-2.9 15.5h12.1l-8-15.5-.9-1.9z"/><path d="m326.9 885.2-5-32.6h13.2c2.1 0 4 .4 5.7 1.2s3.1 1.9 4.2 3.3 1.8 3.1 2.1 5 .1 3.6-.6 5-1.7 2.5-3.2 3.3-3.3 1.2-5.5 1.2h-9.1l2.1 13.7h-3.9zm10.5-17.3c1.3 0 2.4-.2 3.3-.7s1.5-1.2 1.9-2 .5-1.9.3-3.1-.6-2.2-1.3-3.1-1.5-1.6-2.6-2c-1-.5-2.2-.7-3.5-.7h-9.3l1.9 11.6z"/><path d="m359.7 885.2h-3.9l-5-32.6h3.9z"/><path d="m370.5 884.8c-1.6-.6-2.9-1.5-3.9-2.6s-1.6-2.3-1.8-3.7h3.8c.2.8.5 1.5 1.2 2.1.6.6 1.4 1.1 2.4 1.5 1 .3 2 .5 3.2.5 1.8 0 3.1-.4 4-1.1s1.2-1.8 1-3.1c-.2-1-.6-1.8-1.3-2.4s-1.7-1-2.9-1.2l-4.5-.7c-2.2-.3-3.9-1.1-5.3-2.3s-2.2-2.7-2.4-4.4c-.2-1.3 0-2.5.6-3.5s1.5-1.8 2.7-2.4 2.7-.9 4.4-.9 3.3.3 4.8.9 2.7 1.4 3.6 2.4c1 1 1.5 2.2 1.8 3.5h-3.8c-.1-.7-.5-1.3-1-1.9-.6-.6-1.3-1-2.1-1.3-.9-.3-1.8-.5-2.8-.5s-1.8.2-2.6.5c-.7.3-1.3.7-1.6 1.3-.4.5-.5 1.2-.4 1.9.1.9.5 1.7 1.2 2.2.7.6 1.5.9 2.7 1.1l4.6.7c2.3.3 4.1 1.1 5.4 2.3 1.4 1.2 2.2 2.8 2.5 4.6.2 1.5 0 2.7-.5 3.8-.6 1.1-1.5 2-2.8 2.6s-2.9.9-4.7.9c-2.1.1-3.9-.2-5.5-.8z"/><path d="m469.6 843.2h-4.3l6.9-32.6h4.9l17.4 32.6h-4.1l-4.5-8.7h-14.6zm5.2-27.5-2.9 15.5h12.1l-8-15.5-.9-1.9z"/><path d="m511 820c1.5.8 2.7 1.9 3.6 3.3s1.6 3.1 1.9 4.9l2.3 15.1h-3.8l-2.3-14.8c-.3-2-1.1-3.6-2.3-4.8-1.2-1.1-2.8-1.7-4.7-1.7-1.4 0-2.5.3-3.4.9s-1.6 1.4-2 2.4c-.4 1.1-.5 2.3-.3 3.7l2.2 14.2h-3.8l-3.7-23.9h3.6l.6 3.7c.6-1.4 1.4-2.5 2.6-3.2s2.7-1.1 4.5-1.1c1.9.1 3.5.5 5 1.3z"/><path d="m543.5 819.4 3.7 23.9h-3.6l-.6-4c-.7 1.5-1.7 2.6-3.1 3.4s-3 1.2-4.8 1.2c-2.2 0-4.2-.5-6.2-1.6-1.9-1.1-3.6-2.6-4.9-4.5s-2.1-4-2.5-6.4c-.4-2.3-.2-4.5.5-6.4s1.9-3.4 3.5-4.5 3.5-1.6 5.7-1.6c1.8 0 3.6.4 5.1 1.2 1.6.8 3 1.9 4.1 3.4l-2.1-12.8h3.8zm-4.6 19.9c1.1-.8 1.9-1.9 2.4-3.3s.6-2.9.3-4.7c-.3-1.7-.9-3.3-1.8-4.7s-2-2.5-3.4-3.3-2.8-1.2-4.3-1.2-2.8.4-3.9 1.2-1.9 1.9-2.4 3.3-.6 2.9-.3 4.7c.3 1.7.9 3.3 1.8 4.7s2 2.5 3.4 3.3c1.3.8 2.8 1.2 4.3 1.2 1.5-.1 2.8-.5 3.9-1.2z"/><path d="m562.2 819.1.6 3.9h-.9c-2.2 0-3.8.7-4.9 2s-1.4 3.1-1 5.5l2 12.7h-3.8l-3.7-23.9h3.8l.7 4.8c.4-1.6 1.2-2.9 2.3-3.7 1.1-.9 2.5-1.3 4.2-1.3z"/><path d="m573.8 842.2c-2-1.1-3.7-2.6-5-4.5s-2.2-4-2.6-6.4-.2-4.5.6-6.4 2-3.4 3.7-4.5 3.7-1.6 6-1.6 4.4.5 6.5 1.6c2 1.1 3.7 2.6 5 4.5s2.2 4 2.6 6.4.2 4.5-.6 6.4-2 3.4-3.7 4.5-3.7 1.6-6 1.6c-2.4-0-4.5-.5-6.5-1.6zm10-3c1.1-.8 1.9-1.8 2.4-3.2s.6-2.9.3-4.7-.9-3.4-1.8-4.7c-.9-1.4-2.1-2.4-3.4-3.2-1.4-.8-2.8-1.1-4.4-1.1s-2.9.4-4 1.1c-1.1.8-1.9 1.8-2.4 3.2s-.6 3-.3 4.7c.3 1.8.9 3.4 1.8 4.7.9 1.4 2.1 2.4 3.4 3.2 1.4.8 2.8 1.1 4.4 1.1 1.5-0 2.8-.3 4-1.1z"/><path d="m592.9 815-.7-4.4h4.3l.7 4.4zm8.4 28.2h-3.8l-3.7-23.9h3.8z"/><path d="m626.6 819.4 3.7 23.9h-3.6l-.6-4c-.7 1.5-1.7 2.6-3.1 3.4s-3 1.2-4.8 1.2c-2.2 0-4.2-.5-6.2-1.6-1.9-1.1-3.6-2.6-4.9-4.5s-2.1-4-2.5-6.4c-.4-2.3-.2-4.5.5-6.4s1.9-3.4 3.5-4.5 3.5-1.6 5.7-1.6c1.8 0 3.6.4 5.1 1.2 1.6.8 3 1.9 4.1 3.4l-2.1-12.8h3.8zm-4.6 19.9c1.1-.8 1.9-1.9 2.4-3.3s.6-2.9.3-4.7c-.3-1.7-.9-3.3-1.8-4.7s-2-2.5-3.4-3.3-2.8-1.2-4.3-1.2-2.8.4-3.9 1.2-1.9 1.9-2.4 3.3-.6 2.9-.3 4.7c.3 1.7.9 3.3 1.8 4.7s2 2.5 3.4 3.3c1.3.8 2.8 1.2 4.3 1.2 1.5-.1 2.8-.5 3.9-1.2z"/><path d="m477.5 884.8c-1.6-.6-2.9-1.5-3.9-2.6s-1.6-2.3-1.8-3.7h3.8c.2.8.5 1.5 1.2 2.1.6.6 1.4 1.1 2.4 1.5 1 .3 2 .5 3.2.5 1.8 0 3.1-.4 4-1.1s1.2-1.8 1-3.1c-.2-1-.6-1.8-1.3-2.4s-1.7-1-2.9-1.2l-4.5-.7c-2.2-.3-3.9-1.1-5.3-2.3s-2.2-2.7-2.4-4.4c-.2-1.3 0-2.5.6-3.5s1.5-1.8 2.7-2.4 2.7-.9 4.4-.9 3.3.3 4.8.9 2.7 1.4 3.6 2.4c1 1 1.5 2.2 1.8 3.5h-3.8c-.1-.7-.5-1.3-1-1.9-.6-.6-1.3-1-2.1-1.3-.9-.3-1.8-.5-2.8-.5s-1.8.2-2.6.5c-.7.3-1.3.7-1.6 1.3-.4.5-.5 1.2-.4 1.9.1.9.5 1.7 1.2 2.2.7.6 1.5.9 2.7 1.1l4.6.7c2.3.3 4.1 1.1 5.4 2.3 1.4 1.2 2.2 2.8 2.5 4.6.2 1.5 0 2.7-.5 3.8-.6 1.1-1.5 2-2.8 2.6s-2.9.9-4.7.9c-2.1.1-3.9-.2-5.5-.8z"/><path d="m512 862.4c1.9 1.1 3.6 2.6 4.9 4.5s2.1 4 2.5 6.4c.4 2.3.2 4.5-.5 6.4s-1.9 3.4-3.5 4.5-3.5 1.6-5.7 1.6c-1.8 0-3.6-.4-5.2-1.2s-3-1.9-4.1-3.4l.2 1.5 1.6 10h-3.7l-4.8-31.4h3.6l.6 4c.7-1.5 1.7-2.6 3.1-3.4s2.9-1.2 4.8-1.2c2.2.1 4.2.6 6.2 1.7zm.7 18.8c1.1-.8 1.9-1.9 2.4-3.3s.6-2.9.3-4.7c-.3-1.7-.9-3.3-1.8-4.7s-2-2.5-3.4-3.3c-1.3-.8-2.8-1.2-4.3-1.2s-2.9.4-4 1.2-1.9 1.9-2.4 3.3-.6 2.9-.3 4.7c.3 1.7.9 3.3 1.8 4.7s2 2.5 3.4 3.3 2.8 1.2 4.3 1.2c1.6-0 2.9-.4 4-1.2z"/><path d="m545.8 874.2h-19.1c.4 1.6 1 3.1 2 4.3.9 1.3 2 2.2 3.3 2.9s2.7 1 4.2 1c1 0 1.9-.2 2.8-.5s1.6-.7 2.2-1.3 1-1.2 1.2-1.9h3.6c-.1 1.3-.5 2.5-1.4 3.5-.9 1.1-2 1.9-3.5 2.5-1.4.6-3 .9-4.7.9-2.3 0-4.4-.5-6.4-1.6s-3.6-2.6-4.9-4.5-2.1-4.1-2.5-6.5c-.4-2.3-.2-4.5.6-6.4.7-1.9 1.9-3.4 3.5-4.5s3.6-1.6 5.8-1.6c2.1 0 4.1.5 6 1.6s3.4 2.6 4.7 4.5 2.1 4 2.4 6.4zm-17.7-8.3c-1.2 1.3-1.8 3-1.8 5.1h15.1c-.7-2.2-1.7-3.9-3.2-5.1-1.5-1.3-3.2-1.9-5.1-1.9-2.2 0-3.8.7-5 1.9z"/><path d="m556.4 884.1c-2-1.1-3.7-2.6-5-4.5s-2.2-4-2.5-6.4c-.4-2.3-.2-4.5.6-6.4s2-3.4 3.6-4.5c1.7-1.1 3.6-1.6 5.9-1.6 1.9 0 3.8.4 5.5 1.1 1.7.8 3.2 1.8 4.4 3.1s2 2.8 2.4 4.5h-3.8c-.3-1-.9-2-1.8-2.8-.8-.8-1.8-1.5-2.9-1.9-1.1-.5-2.3-.7-3.5-.7-1.5 0-2.9.4-4 1.2s-1.9 1.9-2.4 3.3-.6 3-.3 4.7.9 3.3 1.8 4.7 2 2.5 3.4 3.3 2.8 1.2 4.3 1.2c1.2 0 2.3-.2 3.3-.7s1.8-1.1 2.3-1.9c.6-.8.9-1.7.9-2.6h3.8c.1 1.6-.2 3-1.1 4.3-.8 1.3-2 2.3-3.5 3s-3.3 1.1-5.2 1.1c-2 .1-4.2-.4-6.2-1.5z"/><path d="m574.5 857-.7-4.4h4.3l.7 4.4zm8.3 28.2h-3.7l-3.7-23.9h3.8z"/><path d="m591 885.2-3.2-20.5h-4.2l-.5-3.3h4.2l-.6-3.6c-.2-1.6.1-2.9.9-3.8.9-.9 2.2-1.4 3.9-1.4h4.3l.5 3.3h-4.1c-.7 0-1.2.2-1.5.6s-.4.9-.3 1.5l.5 3.4h6l.5 3.3h-6l3.2 20.5z"/><path d="m601.4 857-.7-4.4h4.3l.7 4.4zm8.4 28.2h-3.8l-3.7-23.9h3.8z"/><path d="m620.7 884.1c-2-1.1-3.7-2.6-5-4.5s-2.2-4-2.5-6.4c-.4-2.3-.2-4.5.6-6.4s2-3.4 3.6-4.5c1.7-1.1 3.6-1.6 5.9-1.6 1.9 0 3.8.4 5.5 1.1 1.7.8 3.2 1.8 4.4 3.1s2 2.8 2.4 4.5h-3.8c-.3-1-.9-2-1.8-2.8-.8-.8-1.8-1.5-2.9-1.9-1.1-.5-2.3-.7-3.5-.7-1.5 0-2.9.4-4 1.2s-1.9 1.9-2.4 3.3-.6 3-.3 4.7.9 3.3 1.8 4.7 2 2.5 3.4 3.3 2.8 1.2 4.3 1.2c1.2 0 2.3-.2 3.3-.7s1.8-1.1 2.3-1.9c.6-.8.9-1.7.9-2.6h3.8c.1 1.6-.2 3-1.1 4.3-.8 1.3-2 2.3-3.5 3s-3.3 1.1-5.2 1.1c-2 .1-4.2-.4-6.2-1.5z"/><path d="m654.1 885.2h-4.3l6.9-32.6h4.9l17.4 32.6h-4.1l-4.5-8.7h-14.6zm5.2-27.5-2.9 15.5h12.1l-8-15.5-.9-1.9z"/><path d="m684 885.2-5-32.6h13.1c2.1 0 4 .4 5.7 1.2s3.1 1.9 4.2 3.3 1.8 3.1 2.1 5 .1 3.6-.6 5-1.7 2.5-3.2 3.3-3.3 1.2-5.5 1.2h-9.1l2.1 13.7h-3.8zm10.5-17.3c1.3 0 2.4-.2 3.3-.7s1.5-1.2 1.9-2 .5-1.9.3-3.1-.6-2.2-1.3-3.1-1.5-1.6-2.6-2c-1-.5-2.2-.7-3.5-.7h-9.3l1.8 11.7h9.4z"/><path d="m716.8 885.2h-3.9l-5-32.6h3.9z"/><path d="m727.7 884.8c-1.6-.6-2.9-1.5-3.9-2.6s-1.6-2.3-1.8-3.7h3.8c.2.8.5 1.5 1.2 2.1.6.6 1.4 1.1 2.4 1.5 1 .3 2 .5 3.2.5 1.8 0 3.1-.4 4-1.1s1.2-1.8 1-3.1c-.2-1-.6-1.8-1.3-2.4s-1.7-1-2.9-1.2l-4.5-.7c-2.2-.3-3.9-1.1-5.3-2.3s-2.2-2.7-2.4-4.4c-.2-1.3 0-2.5.6-3.5s1.5-1.8 2.7-2.4 2.7-.9 4.4-.9 3.3.3 4.8.9 2.7 1.4 3.6 2.4 1.5 2.2 1.8 3.5h-3.8c-.1-.7-.5-1.3-1-1.9-.6-.6-1.3-1-2.1-1.3-.9-.3-1.8-.5-2.8-.5s-1.8.2-2.6.5c-.7.3-1.3.7-1.6 1.3-.4.5-.5 1.2-.4 1.9.1.9.5 1.7 1.2 2.2.7.6 1.5.9 2.7 1.1l4.6.7c2.3.3 4.1 1.1 5.4 2.3 1.4 1.2 2.2 2.8 2.5 4.6.2 1.5 0 2.7-.5 3.8s-1.5 2-2.8 2.6-2.9.9-4.7.9c-2.2.1-3.9-.2-5.5-.8z"/><path d="m808.6 843.2-.6-3.6h6.3c1.2 0 2.1-.4 2.7-1.1s.8-1.7.7-2.9l-3.9-25h3.9l3.9 25.6c.2 1.4.1 2.6-.4 3.7s-1.2 1.9-2.3 2.5c-1 .6-2.3.9-3.7.9h-6.6z"/><path d="m834.7 842.6c-1.9-.8-3.4-2-4.6-3.4-1.2-1.5-1.9-3.2-2.2-5.1h4c.2 1.2.7 2.3 1.5 3.3.8.9 1.8 1.7 3 2.2s2.6.8 4.1.8 2.7-.2 3.8-.7 1.8-1.2 2.3-2.1.6-1.9.5-3.1c-.2-1.4-.8-2.5-1.8-3.5s-2.3-1.6-3.9-1.9l-6-1.1c-1.6-.3-3-.9-4.3-1.7s-2.3-1.9-3.1-3.1-1.3-2.6-1.5-4c-.3-1.7 0-3.3.7-4.6.7-1.4 1.8-2.4 3.3-3.2s3.3-1.1 5.3-1.1c2.1 0 4 .4 5.8 1.2s3.2 1.8 4.3 3.2 1.8 2.9 2.1 4.7h-4c-.2-1.1-.6-2-1.3-2.9-.7-.8-1.6-1.5-2.7-2s-2.3-.7-3.6-.7-2.4.2-3.4.7-1.7 1.1-2.1 2c-.4.8-.6 1.8-.4 2.9.2 1.3.8 2.4 1.7 3.3s2.1 1.5 3.6 1.8l6.2 1.2c1.6.3 3 .9 4.3 1.7 1.3.9 2.4 1.9 3.2 3.2s1.4 2.6 1.6 4.1c.3 1.9 0 3.5-.7 4.9-.8 1.4-2 2.5-3.6 3.3s-3.5 1.2-5.8 1.2c-2.4-.3-4.4-.7-6.3-1.5z"/><path d="m821.9 884.8c-1.6-.6-2.9-1.5-3.9-2.6s-1.6-2.3-1.8-3.7h3.8c.2.8.5 1.5 1.2 2.1.6.6 1.4 1.1 2.4 1.5s2 .5 3.2.5c1.8 0 3.1-.4 4-1.1s1.2-1.8 1-3.1c-.2-1-.6-1.8-1.3-2.4s-1.7-1-2.9-1.2l-4.5-.7c-2.2-.3-3.9-1.1-5.3-2.3s-2.2-2.7-2.4-4.4c-.2-1.3 0-2.5.6-3.5s1.5-1.8 2.7-2.4 2.7-.9 4.4-.9 3.3.3 4.8.9 2.7 1.4 3.6 2.4c1 1 1.5 2.2 1.8 3.5h-3.8c-.1-.7-.5-1.3-1-1.9-.6-.6-1.3-1-2.1-1.3-.9-.3-1.8-.5-2.8-.5s-1.8.2-2.6.5c-.7.3-1.3.7-1.6 1.3-.4.5-.5 1.2-.4 1.9.1.9.5 1.7 1.2 2.2.7.6 1.5.9 2.7 1.1l4.6.7c2.3.3 4.1 1.1 5.4 2.3 1.4 1.2 2.2 2.8 2.5 4.6.2 1.5 0 2.7-.5 3.8s-1.5 2-2.8 2.6-2.9.9-4.7.9c-2.2.1-4-.2-5.5-.8z"/><path d="m856.3 862.4c1.9 1.1 3.6 2.6 4.9 4.5s2.1 4 2.5 6.4c.4 2.3.2 4.5-.5 6.4s-1.9 3.4-3.5 4.5-3.5 1.6-5.7 1.6c-1.8 0-3.6-.4-5.2-1.2s-3-1.9-4.1-3.4l.2 1.5 1.6 10h-3.7l-4.8-31.4h3.6l.6 4c.7-1.5 1.7-2.6 3.1-3.4s2.9-1.2 4.8-1.2c2.2.1 4.3.6 6.2 1.7zm.7 18.8c1.1-.8 1.9-1.9 2.4-3.3s.6-2.9.3-4.7c-.3-1.7-.9-3.3-1.8-4.7s-2-2.5-3.4-3.3c-1.3-.8-2.8-1.2-4.3-1.2s-2.9.4-4 1.2-1.9 1.9-2.4 3.3-.6 2.9-.3 4.7c.3 1.7.9 3.3 1.8 4.7s2 2.5 3.4 3.3 2.8 1.2 4.3 1.2c1.6-0 2.9-.4 4-1.2z"/><path d="m890.1 874.2h-19.1c.4 1.6 1 3.1 2 4.3.9 1.3 2 2.2 3.3 2.9s2.7 1 4.2 1c1 0 1.9-.2 2.8-.5s1.6-.7 2.2-1.3 1-1.2 1.2-1.9h3.6c-.1 1.3-.5 2.5-1.4 3.5-.9 1.1-2 1.9-3.5 2.5-1.4.6-3 .9-4.7.9-2.3 0-4.4-.5-6.4-1.6s-3.6-2.6-4.9-4.5-2.1-4.1-2.5-6.5c-.4-2.3-.2-4.5.6-6.4.7-1.9 1.9-3.4 3.5-4.5s3.6-1.6 5.8-1.6c2.1 0 4.1.5 6 1.6s3.4 2.6 4.7 4.5 2.1 4 2.4 6.4zm-17.7-8.3c-1.2 1.3-1.8 3-1.8 5.1h15.1c-.7-2.2-1.7-3.9-3.2-5.1-1.5-1.3-3.2-1.9-5.1-1.9-2.2 0-3.8.7-5 1.9z"/><path d="m900.7 884.1c-2-1.1-3.7-2.6-5-4.5s-2.2-4-2.5-6.4c-.4-2.3-.2-4.5.6-6.4s2-3.4 3.6-4.5c1.7-1.1 3.6-1.6 5.9-1.6 1.9 0 3.8.4 5.5 1.1 1.7.8 3.2 1.8 4.4 3.1s2 2.8 2.4 4.5h-3.8c-.3-1-.9-2-1.8-2.8-.8-.8-1.8-1.5-2.9-1.9-1.1-.5-2.3-.7-3.5-.7-1.5 0-2.9.4-4 1.2s-1.9 1.9-2.4 3.3-.6 3-.3 4.7.9 3.3 1.8 4.7 2 2.5 3.4 3.3 2.8 1.2 4.3 1.2c1.2 0 2.3-.2 3.3-.7s1.8-1.1 2.3-1.9.9-1.7.9-2.6h3.8c.1 1.6-.2 3-1.1 4.3-.8 1.3-2 2.3-3.5 3s-3.3 1.1-5.2 1.1c-2 .1-4.2-.4-6.2-1.5z"/><path d="m918.8 857-.7-4.4h4.3l.7 4.4zm8.3 28.2h-3.8l-3.7-23.9h3.8z"/><path d="m935.3 885.2-3.2-20.5h-4.2l-.5-3.3h4.2l-.6-3.6c-.2-1.6.1-2.9.9-3.8.9-.9 2.2-1.4 3.9-1.4h4.3l.5 3.3h-4.1c-.7 0-1.2.2-1.5.6s-.4.9-.3 1.5l.5 3.4h6l.5 3.3h-6l3.2 20.5z"/><path d="m945.7 857-.7-4.4h4.3l.7 4.4zm8.4 28.2h-3.8l-3.7-23.9h3.8z"/><path d="m965 884.1c-2-1.1-3.7-2.6-5-4.5s-2.2-4-2.5-6.4c-.4-2.3-.2-4.5.6-6.4s2-3.4 3.6-4.5c1.7-1.1 3.6-1.6 5.9-1.6 1.9 0 3.8.4 5.5 1.1 1.7.8 3.2 1.8 4.4 3.1s2 2.8 2.4 4.5h-3.8c-.3-1-.9-2-1.8-2.8-.8-.8-1.8-1.5-2.9-1.9-1.1-.5-2.3-.7-3.5-.7-1.5 0-2.9.4-4 1.2s-1.9 1.9-2.4 3.3-.6 3-.3 4.7.9 3.3 1.8 4.7 2 2.5 3.4 3.3 2.8 1.2 4.3 1.2c1.2 0 2.3-.2 3.3-.7s1.8-1.1 2.3-1.9c.6-.8.9-1.7.9-2.6h3.8c.1 1.6-.2 3-1.1 4.3-.8 1.3-2 2.3-3.5 3s-3.3 1.1-5.2 1.1c-2 .1-4.2-.4-6.2-1.5z"/><path d="m998.4 885.2h-4.3l6.9-32.6h4.9l17.4 32.6h-4.1l-4.5-8.7h-14.6zm5.2-27.5-2.9 15.5h12.1l-8-15.5-.9-1.9z"/><path d="m1028.3 885.2-5-32.6h13.2c2.1 0 4 .4 5.7 1.2s3.1 1.9 4.2 3.3 1.8 3.1 2.1 5 .1 3.6-.6 5-1.7 2.5-3.2 3.3-3.3 1.2-5.5 1.2h-9.1l2.1 13.7h-3.9zm10.5-17.3c1.3 0 2.4-.2 3.3-.7s1.5-1.2 1.9-2c.4-.9.5-1.9.3-3.1s-.6-2.2-1.3-3.1-1.5-1.6-2.6-2c-1-.5-2.2-.7-3.5-.7h-9.3l1.8 11.7h9.4z"/><path d="m1061.1 885.2h-3.9l-5-32.6h3.9z"/><path d="m1072 884.8c-1.6-.6-2.9-1.5-3.9-2.6s-1.6-2.3-1.8-3.7h3.8c.2.8.5 1.5 1.2 2.1.6.6 1.4 1.1 2.4 1.5 1 .3 2 .5 3.2.5 1.8 0 3.1-.4 4-1.1s1.2-1.8 1-3.1c-.2-1-.6-1.8-1.3-2.4s-1.7-1-2.9-1.2l-4.5-.7c-2.2-.3-3.9-1.1-5.3-2.3s-2.2-2.7-2.4-4.4c-.2-1.3 0-2.5.6-3.5s1.5-1.8 2.7-2.4 2.7-.9 4.4-.9 3.3.3 4.8.9 2.7 1.4 3.6 2.4 1.5 2.2 1.8 3.5h-3.8c-.1-.7-.5-1.3-1-1.9-.6-.6-1.3-1-2.1-1.3-.9-.3-1.8-.5-2.8-.5s-1.8.2-2.6.5c-.7.3-1.3.7-1.6 1.3-.4.5-.5 1.2-.4 1.9.1.9.5 1.7 1.2 2.2.7.6 1.5.9 2.7 1.1l4.6.7c2.3.3 4.1 1.1 5.4 2.3 1.4 1.2 2.2 2.8 2.5 4.6.2 1.5 0 2.7-.5 3.8-.6 1.1-1.5 2-2.8 2.6s-2.9.9-4.7.9c-2.2.1-3.9-.2-5.5-.8z"/></g><path d="m750.7 726.2h-300.4c-10.8 0-20-7.8-21.7-18.5l-97.9-607.6c-2.2-13.4 8.2-25.5 21.7-25.5h300.4c10.8 0 20 7.8 21.7 18.5l97.9 607.6c2.1 13.4-8.2 25.5-21.7 25.5z" fill="#f4f4f4"/><path d="m1101.4 726.2h-300.4c-10.8 0-20-7.8-21.7-18.5l-97.9-607.6c-2.2-13.4 8.2-25.5 21.7-25.5h300.4c10.8 0 20 7.8 21.7 18.5l97.9 607.6c2.2 13.4-8.2 25.5-21.7 25.5z" fill="#f4f4f4"/><path d="m1452 726.2h-300.4c-10.8 0-20-7.8-21.7-18.5l-97.9-607.6c-2.2-13.4 8.2-25.5 21.7-25.5h300.4c10.8 0 20 7.8 21.7 18.5l97.9 607.6c2.2 13.4-8.1 25.5-21.7 25.5z" fill="#f4f4f4"/><path clip-rule="evenodd" d="m538.6 284s-3-6.4 3.1-13.8c6.8-8.4 18.2-8.4 18.2-8.4s3.1 7.9-3.8 15.5c-7.4 8-17.5 6.7-17.5 6.7zm39.3 29.1c-2.2-13 10.4-18.3 10.4-18.3s-8.6-9.7-26.2-9.7c-10.2 0-17.3 4.5-21.5 4.5-4.9 0-13-4.2-22.5-4.2-14.6 0-28.4 10.1-25.1 29.4 3.4 19.6 25.9 43.9 40.4 43.9 5.1 0 12.2-4 20-4 7.7 0 14 3.8 21.3 3.8 15.9 0 23.3-25.7 23.3-25.7s-17.6-5.1-20.1-19.7z" fill="#27282c" fill-rule="evenodd"/><path d="m522.6 433.2h-4.8l-17.5-32.6h4.3l15 28.1 5.6-28.1h4.3z" fill="#27282c"/><path d="m534.1 405.1-.7-4.4h4.3l.7 4.4zm8.6 28.1h-3.8l-3.8-23.8h3.8z" fill="#27282c"/><path d="m569.1 422.2h-19.1c.4 1.6 1.1 3.1 2 4.3.9 1.3 2 2.2 3.3 2.9s2.7 1 4.2 1c1 0 1.9-.2 2.8-.5s1.6-.7 2.2-1.3 1-1.2 1.2-1.9h3.6c-.1 1.3-.5 2.5-1.4 3.5-.9 1.1-2 1.9-3.4 2.5s-3 .9-4.7.9c-2.3 0-4.4-.5-6.4-1.6s-3.6-2.6-4.9-4.5-2.2-4.1-2.5-6.5c-.4-2.3-.2-4.5.5-6.4s1.9-3.4 3.5-4.5 3.6-1.6 5.8-1.6c2.1 0 4.1.5 6 1.6s3.5 2.6 4.7 4.5c1.3 1.9 2.1 4 2.5 6.4zm-17.7-8.2c-1.2 1.3-1.8 3-1.8 5.1h15.1c-.7-2.2-1.8-3.9-3.2-5.1-1.5-1.3-3.2-1.9-5.1-1.9-2.2 0-3.9.7-5 1.9z" fill="#27282c"/><path d="m584.8 433.2h-3.9l-11.8-23.8h4l8.3 17.5.9 1.9.2-1.9 2.9-17.5h3.9l8.6 17.5.8 1.9.2-1.9 2.5-17.5h3.9l-4.1 23.8h-4l-8.6-18.3-.7-1.5-.2 1.5z" fill="#27282c"/><path d="m873.5 433.2h-4.8l-17.5-32.6h4.3l15 28.1 5.6-28.1h4.3z" fill="#27282c"/><path d="m885 405.1-.7-4.4h4.3l.7 4.4zm8.6 28.1h-3.8l-3.8-23.8h3.8z" fill="#27282c"/><path d="m920.1 422.2h-19.1c.4 1.6 1.1 3.1 2 4.3.9 1.3 2 2.2 3.3 2.9s2.7 1 4.2 1c1 0 1.9-.2 2.8-.5s1.6-.7 2.2-1.3 1-1.2 1.2-1.9h3.6c-.1 1.3-.5 2.5-1.4 3.5-.9 1.1-2 1.9-3.4 2.5s-3 .9-4.7.9c-2.3 0-4.4-.5-6.4-1.6s-3.6-2.6-4.9-4.5-2.2-4.1-2.5-6.5c-.4-2.3-.2-4.5.5-6.4s1.9-3.4 3.5-4.5 3.6-1.6 5.8-1.6c2.1 0 4.1.5 6 1.6s3.5 2.6 4.7 4.5c1.3 1.9 2.1 4 2.5 6.4zm-17.8-8.2c-1.2 1.3-1.8 3-1.8 5.1h15.1c-.7-2.2-1.8-3.9-3.2-5.1-1.5-1.3-3.2-1.9-5.1-1.9-2.2 0-3.8.7-5 1.9z" fill="#27282c"/><path d="m935.7 433.2h-3.9l-11.8-23.8h4l8.3 17.5.8 1.9.2-1.9 2.9-17.5h3.9l8.6 17.5.8 1.9.2-1.9 2.5-17.5h3.9l-4.1 23.8h-4l-8.6-18.3-.7-1.5-.2 1.5z" fill="#27282c"/><path d="m917.9 302.1 7.2-15.8c.4-.9-.2-2-1.4-2.5s-2.5-.2-2.9.7l-7.3 16c-9.3-3.2-19.4-5-29.7-5s-19.5 1.8-27.3 5l-15.1-16c-.8-.9-2.3-1.2-3.2-.7s-1 1.6-.2 2.5l14.9 15.8c-17 8.5-26.1 24.5-23.7 43.1h133.3c-6.8-18.6-23.5-34.5-44.6-43.1zm-56.5 27.7c-3.1 0-6.1-2.1-6.7-4.6-.6-2.6 1.4-4.6 4.5-4.6s6.1 2.1 6.7 4.6-1.4 4.6-4.5 4.6zm61.2 0c-3.1 0-6.1-2.1-6.7-4.6-.6-2.6 1.4-4.6 4.5-4.6s6.1 2.1 6.7 4.6-1.4 4.6-4.5 4.6z" fill="#27282c"/><path d="m1293.2 336.4c-3.3 10.9-11.8 19.4-23.6 23.1-.5.1-1-.4-.7-.8 4.6-5 7.4-12.8 7.9-22.3 0-.4.4-.7.8-.7h14.9c.4.1.8.4.7.7zm-70 .1c-.2-.4-.7-.7-1.1-.7h-14.9c-.4 0-.5.4-.3.7 8 10.9 20.1 19.4 33.5 23.1.5.1.8-.4.3-.8-6.6-5-12.8-12.9-17.5-22.3zm64.6-33.9c-.2-.4-.7-.6-1.1-.6h-15.2c-.6 0-1 .5-.7 1.1 1.9 4.5 3.4 9.3 4.5 14.3s1.6 9.8 1.7 14.3c0 .6.6 1.1 1.2 1.1h15.2c.4 0 .8-.2.8-.6.8-4.6.7-9.6-.4-14.8-1.2-5.2-3.2-10.2-6-14.8zm-40.5 33.2h-19.9c-.7 0-1 .6-.7 1.2 7 13.9 17.4 23.6 27.2 24.6l-5.4-24.9c-.1-.5-.6-.9-1.2-.9zm21.4-37.5c.2.4.7.7 1.1.7h14.9c.4 0 .5-.4.3-.7-8-10.9-20.1-19.4-33.6-23.1-.5-.1-.8.4-.3.8 6.7 5 12.9 12.8 17.6 22.3zm-47.6 33.4c-1.9-4.5-3.4-9.3-4.5-14.3s-1.6-9.8-1.7-14.3c0-.6-.6-1.1-1.2-1.1h-15.2c-.4 0-.8.2-.8.6-.8 4.6-.7 9.6.4 14.8s3.2 10.2 5.9 14.8c.2.4.7.6 1.1.6h15.2c.7 0 1-.5.8-1.1zm-21.8-32.7h14.9c.5 0 .8-.3.8-.7.6-9.5 3.4-17.3 8-22.3.3-.3-.2-.9-.7-.8-11.8 3.7-20.3 12.2-23.6 23.1-.1.4.3.7.6.7zm45.3 0h19.9c.7 0 1-.6.7-1.2-7-13.9-17.4-23.6-27.2-24.6l5.4 24.9c.1.5.6.9 1.2.9zm27.8 36.8h-19.9c-.5 0-.9.4-.8.9l5.4 24.9c9.4-1 15.5-10.8 16.6-24.6 0-.7-.6-1.2-1.3-1.2zm-20.5-3h21.1c.5 0 .8-.3.8-.7 0-4.6-.6-9.5-1.7-14.7-1.1-5.1-2.7-10.1-4.6-14.7-.2-.4-.7-.7-1.1-.7h-21.1c-.5 0-.9.4-.8.9l6.3 29c-0 .5.5.9 1.1.9zm-33.6-35c0 .6.6 1.2 1.2 1.2h19.9c.5 0 .9-.4.8-.9l-5.4-24.9c-9.3 1-15.5 10.8-16.5 24.6zm21.7 4.2h-21.1c-.5 0-.8.3-.8.7 0 4.6.6 9.5 1.7 14.7 1.1 5.1 2.7 10.1 4.6 14.7.2.4.7.7 1.1.7h21.1c.5 0 .9-.4.8-.9l-6.3-29c0-.5-.5-.9-1.1-.9z" fill="#27282c"/><path d="m1145 433.4-.6-3.6h6.3c1.2 0 2.1-.4 2.7-1.1s.8-1.7.6-2.9l-4-25h3.9l4.1 25.6c.2 1.4.1 2.6-.4 3.7s-1.2 1.9-2.2 2.5-2.3.9-3.7.9h-6.7z" fill="#27282c"/><path d="m1171.1 432.8c-1.9-.8-3.4-2-4.6-3.4-1.2-1.5-2-3.2-2.3-5.1h4c.2 1.2.7 2.3 1.5 3.3.8.9 1.8 1.7 3.1 2.2 1.2.5 2.6.8 4.1.8s2.7-.2 3.8-.7 1.8-1.2 2.3-2.1.6-1.9.4-3.1c-.2-1.4-.8-2.5-1.9-3.5-1-1-2.3-1.6-3.9-1.9l-6-1.1c-1.6-.3-3-.9-4.3-1.7s-2.3-1.9-3.1-3.1-1.3-2.6-1.6-4c-.3-1.7-.1-3.3.6-4.6s1.8-2.4 3.3-3.2 3.3-1.1 5.3-1.1c2.1 0 4 .4 5.8 1.2s3.2 1.8 4.4 3.2 1.8 2.9 2.1 4.7h-4c-.2-1.1-.6-2-1.3-2.9s-1.6-1.5-2.7-2-2.3-.7-3.6-.7-2.4.2-3.4.7-1.6 1.1-2.1 2c-.4.8-.6 1.8-.4 2.9.2 1.3.8 2.4 1.7 3.3s2.1 1.5 3.6 1.8l6.2 1.2c1.6.3 3 .9 4.3 1.7 1.3.9 2.4 1.9 3.2 3.2.9 1.3 1.4 2.6 1.6 4.1.3 1.8.1 3.5-.7 4.9s-1.9 2.5-3.6 3.3c-1.6.8-3.5 1.2-5.8 1.2-2.1-.3-4.1-.7-6-1.5z" fill="#27282c"/><path d="m1230.3 433.4h-4.2l-4-4.2c-1.1 1.4-2.3 2.6-3.9 3.4-1.5.8-3.1 1.2-4.8 1.2-2.2 0-4.1-.4-5.9-1.2s-3.2-2-4.4-3.5-1.9-3.2-2.2-5.2c-.3-1.8-.2-3.3.2-4.8.4-1.4 1.1-2.6 2.1-3.5s2.3-1.6 3.8-1.9l-.3-.3c-1-1.1-1.9-2.2-2.6-3.4s-1.1-2.2-1.3-3.1c-.2-1.6-.1-2.9.4-4.1s1.4-2.1 2.6-2.8 2.6-1 4.3-1 3.3.3 4.8 1c1.4.7 2.6 1.6 3.5 2.8s1.5 2.6 1.8 4.2h-3.8c-.2-.9-.5-1.8-1-2.5s-1.2-1.3-2-1.7-1.7-.6-2.7-.6c-.9 0-1.7.2-2.4.6s-1.1 1-1.4 1.7-.3 1.6-.2 2.5c.1.6.4 1.3.9 2.2.5.8 1.1 1.7 1.8 2.4l11.5 12 2.7-7.2h4l-3.9 10.1zm-13.4-3.8c1.2-.7 2.1-1.7 2.8-2.9l-9.7-10c-1.2.1-2.3.4-3.2 1s-1.5 1.5-1.8 2.6c-.4 1.1-.4 2.3-.2 3.7.2 1.3.7 2.5 1.5 3.5s1.8 1.8 3 2.3 2.5.8 4 .8c1.2.1 2.4-.3 3.6-1z" fill="#27282c"/><path d="m1250 433.4h-3.9l-5.2-32.6h3.9l2.3 14.1h17.2l-2.3-14.1h3.9l5.2 32.6h-3.9l-2.4-14.9h-17.2z" fill="#27282c"/><path d="m1282.8 404.5h-10.8l-.6-3.6h25.4l.6 3.6h-10.7l4.7 29.1h-3.9z" fill="#27282c"/><path d="m1311.5 433.4h-3.9l-5.2-32.6h5l16 26.6.9 1.7.3-1.7 7.1-26.6h5.1l5.2 32.6h-3.9l-4.4-27-7.3 27h-3.4l-16-26.9z" fill="#27282c"/><path d="m1351.2 433.4-5.2-32.6h3.9l4.7 29h16.8l.6 3.6z" fill="#27282c"/></svg>