<svg fill="none" height="60" viewBox="0 0 60 60" width="60" xmlns="http://www.w3.org/2000/svg"><path d="m60 0h-60v60h60z" fill="#000"/><g fill="#fff"><path d="m27.6477 48.7061h-22.47045v3.7647h22.47045z"/><path d="m4.94141 15.765 1.7647-1.647c.47059.5882.94118.9412 1.52941.9412.70589 0 1.05883-.4706 1.05883-1.4118v-6.23529h2.70585v6.23529c0 1.1765-.3529 2.1176-.9411 2.7059-.5883.5882-1.52946.9412-2.70593.9412-1.7647.1176-2.70588-.5883-3.41176-1.5295z"/><path d="m12.5864 7.5293h7.8824v2.23529h-5.1765v1.52941h4.7059v2.1176h-4.7059v1.5295h5.2941v2.3529h-7.8823z"/><path d="m23.9998 9.88224h-2.9412v-2.35294h8.5882v2.35294h-2.9411v7.41176h-2.7059z"/><path d="m5.17725 19.5295h5.05885c1.1764 0 2.1176.353 2.7059.8236.3529.3529.5882.9411.5882 1.647 0 1.1765-.5882 1.7647-1.5294 2.2353 1.1764.353 1.8823 1.0588 1.8823 2.353 0 1.647-1.4117 2.7058-3.647 2.7058h-5.05885zm5.64705 3.0589c0-.5883-.4706-.8236-1.17647-.8236h-1.7647v1.7647h1.64706c.82351-.1176 1.29411-.3529 1.29411-.9411zm-.94117 2.8235h-2.11765v1.7647h2.11765c.82357 0 1.29407-.3529 1.29407-.9412 0-.5882-.4705-.8235-1.29407-.8235z"/><path d="m14.3521 19.5295h4.5882c1.5295 0 2.4707.353 3.1766 1.0589.5882.5882.8235 1.2941.8235 2.2353 0 1.5294-.8235 2.4705-2 3.0588l2.3529 3.4117h-3.0588l-2.0001-2.9411h-1.1764v2.9411h-2.7059zm4.4706 4.7059c.9412 0 1.4118-.4706 1.4118-1.1764 0-.8236-.5883-1.1765-1.4118-1.1765h-1.7647v2.3529z"/><path d="m26.1186 19.5295h2.5882l4.1177 9.8824h-2.9412l-.7059-1.7647h-3.7647l-.7059 1.7647h-2.8235zm2.3529 5.8824-1.0588-2.7059-1.0588 2.7059z"/><path d="m33.1772 19.5295h2.7059v9.7647h-2.7059z"/><path d="m36.5884 19.5295h2.4706l4 5.1765v-5.1765h2.7059v9.7647h-2.353l-4.1176-5.2941v5.4118h-2.7059z"/><path d="m45.9995 27.8829 1.5294-1.7647c.9412.8236 2 1.1765 3.1765 1.1765.7059 0 1.1765-.2353 1.1765-.7059s-.353-.5882-1.6471-.9412c-2.1176-.4705-3.6471-1.0588-3.6471-3.0588 0-1.7647 1.4118-3.1764 3.7648-3.1764 1.647 0 2.9411.4705 4 1.2941l-1.4118 1.8823c-.9412-.5882-1.8824-.9412-2.7059-.9412-.7059 0-.9412.2353-.9412.5883 0 .4706.353.5882 1.6471.9412 2.2353.4705 3.6471 1.1764 3.6471 3.0588 0 2-1.5295 3.1765-4.0001 3.1765-1.7647.1176-3.4117-.4706-4.5882-1.5295z"/></g></svg>